<?xml version="1.0" encoding="UTF-8"?>
<svg id="Layer_1" data-name="Layer 1" xmlns="http://www.w3.org/2000/svg" viewBox="0 0 744.18 293.26">
  <path d="M27.04,214.38c-2.64,0-3.96-.96-3.96-2.9,0-1.58,1.14-2.64,3.43-3.17l6.07-1.06c3.69-.7,6.11-1.67,7.26-2.9,1.14-1.23,1.71-3.69,1.71-7.39V41.8c0-3.69-.57-6.16-1.71-7.39-1.15-1.23-3.56-2.2-7.26-2.9l-6.07-1.06c-2.29-.53-3.43-1.58-3.43-3.17,0-1.93,1.32-2.9,3.96-2.9h55.15c10.38,0,19.53,2.24,27.44,6.73,7.92,4.49,14.07,10.69,18.47,18.6,4.4,7.92,6.6,17.07,6.6,27.44s-2.2,18.91-6.6,26.65c-4.4,7.74-10.47,13.77-18.21,18.08-7.74,4.31-16.72,6.46-26.92,6.46h-19c-2.47,0-3.69,1.23-3.69,3.69v63.86c0,3.69.7,6.2,2.11,7.52,1.41,1.32,4.57,2.42,9.5,3.3l9.76,1.58c1.93.35,2.9,1.32,2.9,2.9,0,2.11-1.32,3.17-3.96,3.17H27.04ZM60.29,107.24c0,9.68,5.89,14.51,17.68,14.51s20.45-4.04,27.05-12.14c6.6-8.09,9.9-19.17,9.9-33.25s-3.34-25.6-10.03-33.51c-6.69-7.92-16.19-11.88-28.5-11.88-10.73,0-16.1,3.52-16.1,10.56v65.71Z"/>
  <path d="M186.85,216.76c-8.97,0-17.02-3.03-24.15-9.1-7.12-6.07-12.8-14.38-17.02-24.94s-6.33-22.34-6.33-35.36,2.11-24.71,6.33-35.1c4.22-10.38,9.94-18.65,17.15-24.81,7.21-6.16,15.21-9.24,24.01-9.24s17.02,3.08,24.15,9.24c7.12,6.16,12.8,14.43,17.02,24.81,4.22,10.38,6.33,22.08,6.33,35.1s-2.07,24.81-6.2,35.36c-4.14,10.56-9.81,18.87-17.02,24.94-7.22,6.07-15.31,9.1-24.28,9.1ZM186.85,210.16c18.29,0,27.44-20.93,27.44-62.81s-9.15-62.54-27.44-62.54-27.44,20.85-27.44,62.54,9.15,62.81,27.44,62.81Z"/>
  <path d="M274.99,216.76c-9.33,0-16.8-3.65-22.43-10.95-5.63-7.3-8.44-17.64-8.44-31.01,0-11.61,2.07-23.13,6.2-34.57,4.13-11.43,9.54-21.81,16.23-31.14,6.68-9.32,14.03-16.8,22.03-22.43,8-5.63,15.79-8.44,23.35-8.44,8.27,0,14.2,1.98,17.81,5.94,3.6,3.96,5.41,9.28,5.41,15.97,0,7.92-2.77,15.79-8.31,23.62-5.54,7.83-13.29,14.82-23.22,20.98-9.94,6.16-21.6,10.73-34.96,13.72-3.87.88-5.9,3.08-6.07,6.6-.18,1.23-.26,2.51-.26,3.83v3.83c0,10.03,1.72,17.59,5.15,22.69,3.43,5.1,8.13,7.65,14.12,7.65,6.68,0,13.15-3.08,19.4-9.24,6.24-6.16,11.48-14.86,15.7-26.12.53-1.58,1.58-2.38,3.17-2.38,1.06,0,1.72.44,1.98,1.32.26.88.22,1.94-.13,3.17-5.63,15.48-12.45,27.18-20.45,35.1-8.01,7.92-16.76,11.88-26.26,11.88ZM265.23,148.41c-.35,1.23-.13,2.24.66,3.03.79.79,1.8,1.01,3.03.66,10.91-2.99,20.06-7.52,27.44-13.59,7.39-6.07,12.97-12.88,16.76-20.45,3.78-7.56,5.67-14.95,5.67-22.17s-2.9-11.08-8.71-11.08c-5.1,0-10.65,2.99-16.62,8.97-5.98,5.98-11.52,13.81-16.62,23.49-5.1,9.68-8.97,20.06-11.61,31.14Z"/>
  <path d="M327.83,210.95l25.07-105.29c.88-3.87,1.01-6.9.4-9.1-.62-2.2-2.24-3.3-4.88-3.3-3.17,0-6.64,2.33-10.42,6.99-3.79,4.66-8.05,13.5-12.8,26.52-.71,2.29-1.94,3.43-3.69,3.43-2.64,0-3.34-1.58-2.11-4.75,3.87-12.14,7.96-21.64,12.27-28.5,4.31-6.86,8.66-11.7,13.06-14.51,4.4-2.81,8.44-4.22,12.14-4.22,5.81,0,9.94,2.16,12.4,6.47,2.46,4.31,2.55,11.39.26,21.24l-6.6,28.5c-.18,1.23.09,1.94.79,2.11.7.18,1.32-.26,1.85-1.32,6.86-14.25,13.46-25.55,19.79-33.91,6.33-8.35,12.31-14.29,17.94-17.81,5.63-3.52,10.73-5.28,15.31-5.28,6.51,0,11.26,2.64,14.25,7.92,2.99,5.28,2.99,13.37,0,24.28l-20.06,76.53c-1.23,4.93-1.32,8.62-.26,11.08,1.06,2.47,2.99,3.69,5.81,3.69,3.52,0,6.99-2.33,10.42-6.99,3.43-4.66,6.99-13.5,10.69-26.52.53-1.93,1.67-2.9,3.43-2.9,1.41,0,2.24.53,2.51,1.58.26,1.06.22,2.29-.13,3.69-3.34,11.97-6.95,21.33-10.82,28.1-3.87,6.77-7.78,11.48-11.74,14.12-3.96,2.64-7.96,3.96-12.01,3.96-6.33,0-11.08-2.64-14.25-7.92s-3.34-13.46-.53-24.54l20.32-76.53c1.93-6.86,2.24-11.61.92-14.25-1.32-2.64-3.21-3.96-5.67-3.96-3.87,0-8.27,2.42-13.19,7.26-4.93,4.84-9.94,11.44-15.04,19.79-5.1,8.36-10.12,17.81-15.04,28.37-4.93,10.56-9.37,21.55-13.33,32.99-3.96,11.44-7.17,22.61-9.63,33.51-.53,1.94-1.76,2.9-3.69,2.9h-10.82c-2.47,0-3.43-1.14-2.9-3.43Z"/>
  <path d="M478.24,216.76c-5.98,0-10.65-2.38-13.99-7.12-3.34-4.75-3.87-12.4-1.58-22.96l21.9-95.53c.53-2.64-.53-3.96-3.17-3.96h-10.03c-2.47,0-3.69-1.14-3.69-3.43,0-1.23.44-2.2,1.32-2.9.88-.7,1.93-1.06,3.17-1.06h9.5c4.04,0,6.42-1.85,7.12-5.54l6.33-28.24c.53-1.93,1.76-2.9,3.69-2.9h10.82c2.46,0,3.43,1.15,2.9,3.43l-6.6,29.29c-.53,2.64.53,3.96,3.17,3.96h15.04c2.99,0,4.49,1.15,4.49,3.43,0,2.64-1.85,3.96-5.54,3.96h-14.25c-3.87,0-6.25,1.85-7.12,5.54l-22.17,96.58c-.88,3.87-.75,6.91.4,9.1,1.14,2.2,3.12,3.3,5.94,3.3,4.04,0,7.78-2.28,11.22-6.86,3.43-4.57,7.08-13.28,10.95-26.12.7-2.28,1.85-3.43,3.43-3.43,1.23,0,2.02.53,2.38,1.58.35,1.06.09,2.99-.79,5.81-3.34,11.97-6.99,21.11-10.95,27.44-3.96,6.33-7.96,10.69-12.01,13.06-4.05,2.38-8.01,3.56-11.88,3.56Z"/>
  <path d="M539.99,214.38c-2.47,0-3.43-1.14-2.9-3.43l25.07-105.29c.88-3.87,1.01-6.9.4-9.1-.62-2.2-2.24-3.3-4.88-3.3-3.17,0-6.64,2.33-10.42,6.99-3.79,4.66-8.05,13.5-12.8,26.52-.71,2.29-1.94,3.43-3.69,3.43-2.64,0-3.34-1.58-2.11-4.75,3.87-12.14,7.96-21.64,12.27-28.5,4.31-6.86,8.66-11.7,13.06-14.51,4.4-2.81,8.44-4.22,12.14-4.22,5.81,0,9.94,2.16,12.4,6.47,2.46,4.31,2.55,11.39.26,21.24l-2.9,12.4c-.18,1.23.09,1.94.79,2.11.7.18,1.32-.26,1.85-1.32,6.68-15.31,12.75-25.95,18.21-31.93,5.45-5.98,11.7-8.97,18.74-8.97,4.75,0,8.31,1.28,10.69,3.83,2.38,2.55,3.56,6.03,3.56,10.42s-1.06,7.92-3.17,10.56c-2.11,2.64-4.84,3.96-8.18,3.96-2.82,0-4.84-.7-6.07-2.11-1.23-1.41-2.16-3.03-2.77-4.88-.62-1.85-1.28-3.47-1.98-4.88-.71-1.41-1.85-2.11-3.43-2.11-2.64,0-6.07,3.34-10.29,10.03-4.22,6.69-8.75,15.7-13.59,27.05-4.84,11.35-9.5,24.06-13.99,38.13-4.49,14.08-8.4,28.5-11.74,43.28-.53,1.94-1.76,2.9-3.69,2.9h-10.82Z"/>
  <path d="M618.36,271.12c-6.68,0-11.88-1.72-15.57-5.15s-5.54-7.61-5.54-12.53c0-3.69.97-6.47,2.9-8.31,1.94-1.85,4.05-2.77,6.33-2.77,3.34,0,5.72.88,7.12,2.64,1.41,1.76,2.47,3.83,3.17,6.2.71,2.38,1.81,4.44,3.3,6.2,1.5,1.76,3.92,2.64,7.26,2.64,6.51,0,12.93-2.6,19.26-7.78,6.33-5.19,11.52-12.32,15.57-21.38,4.04-9.06,5.81-19.22,5.28-30.48l-3.96-94.74c-.18-4.57-.97-7.78-2.38-9.63-1.41-1.85-3.17-2.77-5.28-2.77-3.87,0-7.57,2.33-11.08,6.99-3.52,4.66-6.42,13.5-8.71,26.52-.53,2.29-1.67,3.43-3.43,3.43-2.47,0-3.43-1.58-2.9-4.75,2.11-12.14,5.06-21.64,8.84-28.5,3.78-6.86,7.83-11.7,12.14-14.51,4.31-2.81,8.31-4.22,12.01-4.22,5.45,0,9.76,1.89,12.93,5.67,3.17,3.79,4.92,10.25,5.28,19.4l3.69,101.33c0,1.23.4,1.98,1.19,2.24.79.26,1.54-.13,2.24-1.19,6.16-8.62,11.74-17.55,16.76-26.78,5.01-9.24,9.01-18.34,12.01-27.31,2.99-8.97,4.49-17.24,4.49-24.81s-.79-13.24-2.38-17.55c-1.58-4.31-3.21-7.96-4.88-10.95-1.67-2.99-2.51-6.24-2.51-9.76,0-6.86,2.99-10.29,8.97-10.29,8.44,0,12.67,9.33,12.67,27.97,0,10.21-1.76,21.33-5.28,33.38-3.52,12.05-8.31,24.28-14.38,36.68s-13.02,24.24-20.85,35.49c-7.83,11.26-16.01,21.37-24.54,30.35-8.54,8.97-17.07,16.05-25.6,21.24-8.54,5.19-16.58,7.79-24.15,7.79Z"/>
  <path d="M642.51,263.33c-26.99,18.59-113.59,18.46-147.54,0s20.44-54.82,40.14-27.58,38.33,26.72,38.36,26.72c-3.27.09-7.95-3.31-10.36-5.1-6.62-4.92-10.85-12.59-12.18-20.7-1.4-8.51,2.05-17.03,11.14-18.76,7.13-1.36,16.55.2,21.13,6.4,2.82,3.82,3.16,8.7,3.76,13.24.66,4.99,2.13,9.64,4.58,14.06,4.39,7.9,12.03,12.03,21.08,10.86,20.23-2.63,26.21-4.23,31.24-8.16"/>
</svg>