<svg width="23" height="25" viewBox="0 0 23 25" fill="none" xmlns="http://www.w3.org/2000/svg">
<g filter="url(#filter0_g_67_603)">
<path d="M17.3 22.3C16.4667 22.3 15.7584 22.0083 15.175 21.425C14.5917 20.8417 14.3 20.1333 14.3 19.3C14.3 19.2 14.325 18.9667 14.375 18.6L7.35005 14.5C7.08338 14.75 6.77505 14.946 6.42505 15.088C6.07505 15.23 5.70005 15.3007 5.30005 15.3C4.46672 15.3 3.75838 15.0083 3.17505 14.425C2.59172 13.8417 2.30005 13.1333 2.30005 12.3C2.30005 11.4667 2.59172 10.7583 3.17505 10.175C3.75838 9.59167 4.46672 9.3 5.30005 9.3C5.70005 9.3 6.07505 9.371 6.42505 9.513C6.77505 9.655 7.08338 9.85067 7.35005 10.1L14.375 6C14.3417 5.88333 14.321 5.771 14.313 5.663C14.305 5.555 14.3007 5.434 14.3 5.3C14.3 4.46667 14.5917 3.75833 15.175 3.175C15.7584 2.59167 16.4667 2.3 17.3 2.3C18.1334 2.3 18.8417 2.59167 19.425 3.175C20.0084 3.75833 20.3 4.46667 20.3 5.3C20.3 6.13333 20.0084 6.84167 19.425 7.425C18.8417 8.00833 18.1334 8.3 17.3 8.3C16.9 8.3 16.525 8.229 16.175 8.087C15.825 7.945 15.5167 7.74933 15.25 7.5L8.22505 11.6C8.25838 11.7167 8.27938 11.8293 8.28805 11.938C8.29672 12.0467 8.30072 12.1673 8.30005 12.3C8.29938 12.4327 8.29538 12.5537 8.28805 12.663C8.28072 12.7723 8.25972 12.8847 8.22505 13L15.25 17.1C15.5167 16.85 15.825 16.6543 16.175 16.513C16.525 16.3717 16.9 16.3007 17.3 16.3C18.1334 16.3 18.8417 16.5917 19.425 17.175C20.0084 17.7583 20.3 18.4667 20.3 19.3C20.3 20.1333 20.0084 20.8417 19.425 21.425C18.8417 22.0083 18.1334 22.3 17.3 22.3ZM17.3 20.3C17.5834 20.3 17.821 20.2043 18.013 20.013C18.205 19.8217 18.3007 19.584 18.3 19.3C18.2994 19.016 18.2034 18.7787 18.012 18.588C17.8207 18.3973 17.5834 18.3013 17.3 18.3C17.0167 18.2987 16.7794 18.3947 16.588 18.588C16.3967 18.7813 16.3007 19.0187 16.3 19.3C16.2994 19.5813 16.3954 19.819 16.588 20.013C16.7807 20.207 17.018 20.3027 17.3 20.3ZM5.30005 13.3C5.58338 13.3 5.82105 13.204 6.01305 13.012C6.20505 12.82 6.30072 12.5827 6.30005 12.3C6.29938 12.0173 6.20338 11.78 6.01205 11.588C5.82072 11.396 5.58338 11.3 5.30005 11.3C5.01672 11.3 4.77938 11.396 4.58805 11.588C4.39672 11.78 4.30072 12.0173 4.30005 12.3C4.29938 12.5827 4.39538 12.8203 4.58805 13.013C4.78072 13.2057 5.01805 13.3013 5.30005 13.3ZM18.013 6.012C18.2044 5.82133 18.3 5.584 18.3 5.3C18.3 5.016 18.204 4.77867 18.012 4.588C17.82 4.39733 17.5827 4.30133 17.3 4.3C17.0174 4.29867 16.78 4.39467 16.588 4.588C16.396 4.78133 16.3 5.01867 16.3 5.3C16.3 5.58133 16.396 5.819 16.588 6.013C16.78 6.207 17.0174 6.30267 17.3 6.3C17.5827 6.29733 17.8204 6.20133 18.013 6.012Z" fill="#0223B6"/>
</g>
<defs>
<filter id="filter0_g_67_603" x="4.88758e-05" y="2.38419e-07" width="22.6" height="24.6" filterUnits="userSpaceOnUse" color-interpolation-filters="sRGB">
<feFlood flood-opacity="0" result="BackgroundImageFix"/>
<feBlend mode="normal" in="SourceGraphic" in2="BackgroundImageFix" result="shape"/>
<feTurbulence type="fractalNoise" baseFrequency="0.043478261679410934 0.043478261679410934" numOctaves="3" seed="7506" />
<feDisplacementMap in="shape" scale="4.5999999046325684" xChannelSelector="R" yChannelSelector="G" result="displacedImage" width="100%" height="100%" />
<feMerge result="effect1_texture_67_603">
<feMergeNode in="displacedImage"/>
</feMerge>
</filter>
</defs>
</svg>
